<svg preserveAspectRatio="none" overflow="visible" style="display: block;" width="18.6153" height="18.346" viewBox="0 0 18.6153 18.346" fill="none" xmlns="http://www.w3.org/2000/svg">
<g id="Container">
<path id="Icon" d="M9.48073 18.346C8.35248 18.2092 7.23197 17.909 6.11918 17.4454C5.00639 16.9817 4.0064 16.3118 3.11923 15.4355C2.23205 14.5592 1.50481 13.4506 0.937505 12.1095C0.370198 10.7685 0.0641073 9.15506 0.0192322 7.26918L0 6.36534L0.884607 6.38457C1.65768 6.4038 2.50864 6.54579 3.43749 6.81054C4.36633 7.07529 5.19358 7.43715 5.91921 7.89612C6.06152 6.55254 6.44356 5.15703 7.06535 3.7096C7.68714 2.26217 8.43457 1.02564 9.30764 0C10.1807 1.02564 10.9281 2.26538 11.5499 3.71922C12.1717 5.17306 12.5538 6.57177 12.6961 7.91536C13.4025 7.47561 14.2137 7.11535 15.1297 6.83458C16.0457 6.55381 16.9063 6.4038 17.7114 6.38457L18.6153 6.36534L18.5961 7.28841C18.5704 8.9948 18.3172 10.4848 17.8364 11.7585C17.3557 13.0323 16.707 14.1137 15.8903 15.0028C15.0737 15.8918 14.1192 16.6082 13.0269 17.1518C11.9346 17.6954 10.7525 18.0935 9.48073 18.346V18.346M9.44996 16.8153C9.26663 14.0486 8.4458 11.957 6.98746 10.5403C5.52913 9.12363 3.71663 8.24863 1.54996 7.9153C1.7333 10.7653 2.57913 12.8903 4.08746 14.2903C5.5958 15.6903 7.3833 16.532 9.44996 16.8153V16.8153M9.30764 11.1192C9.54482 10.7269 9.84097 10.3189 10.1961 9.89515C10.5512 9.47143 10.9051 9.11149 11.2576 8.81534C11.2371 7.82687 11.056 6.79514 10.7144 5.72014C10.3727 4.64513 9.9038 3.60635 9.30764 2.60378C8.71149 3.60635 8.24258 4.64513 7.90091 5.72014C7.55924 6.79514 7.37815 7.82687 7.35764 8.81534C7.71021 9.11149 8.06502 9.47143 8.42207 9.89515C8.77912 10.3189 9.07431 10.7269 9.30764 11.1192V11.1192M10.9499 16.423C11.6499 16.1909 12.3461 15.8704 13.0384 15.4615C13.7307 15.0525 14.3628 14.514 14.9346 13.8461C15.5064 13.1781 15.9852 12.3589 16.3711 11.3884C16.757 10.4179 16.9884 9.26017 17.0653 7.9153C15.473 8.14863 14.066 8.69351 12.8442 9.54992C11.6224 10.4063 10.714 11.4756 10.1192 12.7576C10.3192 13.291 10.4868 13.8519 10.622 14.4403C10.7573 15.0288 10.8666 15.6897 10.9499 16.423V16.423M9.30764 11.1192V11.1192V11.1192V11.1192V11.1192V11.1192V11.1192V11.1192V11.1192V11.1192M10.9499 16.423V16.423V16.423V16.423V16.423V16.423V16.423V16.423V16.423V16.423M9.44996 16.8153V16.8153V16.8153V16.8153V16.8153V16.8153M10.1192 12.7576V12.7576V12.7576V12.7576V12.7576V12.7576V12.7576V12.7576V12.7576V12.7576V12.7576V12.7576V12.7576M9.48073 18.346V18.346V18.346V18.346V18.346V18.346V18.346V18.346V18.346V18.346V18.346V18.346V18.346V18.346V18.346V18.346V18.346V18.346V18.346V18.346V18.346" fill="url(#paint0_linear_0_9)"/>
</g>
<defs>
<linearGradient id="paint0_linear_0_9" x1="8.60004" y1="-8.47565" x2="26.9441" y2="10.1377" gradientUnits="userSpaceOnUse">
<stop stop-color="#C49E77"/>
</linearGradient>
</defs>
</svg>
